<svg xmlns="http://www.w3.org/2000/svg" viewBox="0 0 16 16" shape-rendering="crispEdges">
  <!-- 16x16 pixel art: Sword -->
  <style>
    rect { width: 1px; height: 1px; }
  </style>

  <!-- Blade -->
  <rect x="12" y="1" width="1" height="1" fill="#E8E8F0"/>
  <rect x="11" y="2" width="1" height="1" fill="#E8E8F0"/>
  <rect x="12" y="2" width="1" height="1" fill="#C0C0D0"/>
  <rect x="10" y="3" width="1" height="1" fill="#E8E8F0"/>
  <rect x="11" y="3" width="1" height="1" fill="#C0C0D0"/>
  <rect x="9" y="4" width="1" height="1" fill="#E8E8F0"/>
  <rect x="10" y="4" width="1" height="1" fill="#C0C0D0"/>
  <rect x="8" y="5" width="1" height="1" fill="#E8E8F0"/>
  <rect x="9" y="5" width="1" height="1" fill="#C0C0D0"/>
  <rect x="7" y="6" width="1" height="1" fill="#E8E8F0"/>
  <rect x="8" y="6" width="1" height="1" fill="#C0C0D0"/>
  <rect x="6" y="7" width="1" height="1" fill="#D0D0E0"/>
  <rect x="7" y="7" width="1" height="1" fill="#B0B0C0"/>

  <!-- Guard / Crossguard -->
  <rect x="4" y="8" width="1" height="1" fill="#FFD700"/>
  <rect x="5" y="8" width="1" height="1" fill="#DAA520"/>
  <rect x="6" y="8" width="1" height="1" fill="#FFD700"/>
  <rect x="7" y="8" width="1" height="1" fill="#DAA520"/>
  <rect x="8" y="8" width="1" height="1" fill="#FFD700"/>

  <!-- Handle -->
  <rect x="5" y="9" width="1" height="1" fill="#8B4513"/>
  <rect x="6" y="9" width="1" height="1" fill="#6B3410"/>
  <rect x="4" y="10" width="1" height="1" fill="#6B3410"/>
  <rect x="5" y="10" width="1" height="1" fill="#8B4513"/>

  <!-- Pommel -->
  <rect x="3" y="11" width="1" height="1" fill="#FFD700"/>
  <rect x="4" y="11" width="1" height="1" fill="#DAA520"/>
</svg>
